<svg role="img" viewBox="0 0 146.05 269.7" xmlns="http://www.w3.org/2000/svg">
<title>Dove Award</title>
<path fill="#000000" d="M118.32,151.19l19.21,14.04c-17.4,17.51-49.27,13.87-69.6,1.39-9.57-5.88-17.74-12.21-26.34-19.22-8.17-6.65-16.79-12.71-27.28-14.88C6.09,130.82-.03,133.48,0,132.06c.1-4.32,13.94-12.41,22.19-17.21,6.43-3.74,11.72-6.8,14.58-14.26-1.38-3.87-3.56-9-5.46-13.07-6.01-12.87-5.76-26.52.11-39.57C39.21,30.68,49.39,14.72,62.29,0c1.1,17.92-.35,33.62,3.6,49.75,3.8,15.52,17.37,49.75,30.27,50.24,5.26.2,8.57-5.17,10.3-9.29,3.79-9.03,11.17-18.82,13.13-16.52l1.59,1.87c-11.76,17.03,12,20.54,8.57,38.46l-8.04-4.15c-3.61-1.86-8.57-2.44-12.55-.42-10.46,5.33-8.02,28.69,9.17,41.25Z"/>
<path fill="#000000" d="M51.37,265.72c-21.57-7.52-45.74-29.67-44.98-53.83l17.15,8.63c10.05,5.05,22.14,2.51,28.46-6.94,4.42-6.61,6-15.35,5.06-23.19-.6-5-1.02-11.08-3-15.3-3.54-7.51-9.49-12.82-12.05-21.53,9.02,6.45,16.42,11.96,25.34,16.86,27.18,14.91,44.81,16.69,73.23-.07,7.87,14.58,6.29,38.14,1.19,55.12-10.3,34.28-54.07,52.93-90.41,40.26Z"/>
</svg>
